<?xml version="1.0" encoding="utf-8"?>
<!-- Uploaded to: SVG Repo, www.svgrepo.com, Generator: SVG Repo Mixer Tools -->
<svg width="800px" height="800px" viewBox="0 0 1024 1024" class="icon"  version="1.1" xmlns="http://www.w3.org/2000/svg"><path d="M237.717333 320L277.333333 597.333333h469.333334l39.616-277.333333z" fill="#FFC107" /><path d="M832 320v-53.333333a32 32 0 0 0-32-32h-576A32 32 0 0 0 192 266.666667V320h640z" fill="#795548" /><path d="M280.384 618.666667L320 896h384l39.616-277.333333z" fill="#77574F" /><path d="M512 597.333333m-106.666667 0a106.666667 106.666667 0 1 0 213.333334 0 106.666667 106.666667 0 1 0-213.333334 0Z" fill="#77574F" /><path d="M426.666667 597.333333c0-15.616 4.501333-30.058667 11.84-42.666666h-167.253334l15.232 106.666666h169.621334A84.778667 84.778667 0 0 1 426.666667 597.333333zM585.493333 554.666667c7.338667 12.608 11.84 27.050667 11.84 42.666666a84.778667 84.778667 0 0 1-29.44 64h169.621334l15.232-106.666666h-167.253334zM768 128H256l-21.333333 106.666667h554.666666z" fill="#4E342E" /><path d="M512 448a149.333333 149.333333 0 1 1 0 298.666667 149.333333 149.333333 0 0 1 0-298.666667m0-21.333333c-94.101333 0-170.666667 76.565333-170.666667 170.666666s76.565333 170.666667 170.666667 170.666667 170.666667-76.565333 170.666667-170.666667-76.565333-170.666667-170.666667-170.666666z" fill="#5D4037" /><path d="M512 448a149.333333 149.333333 0 1 0 0 298.666667 149.333333 149.333333 0 0 0 0-298.666667z m0 234.666667a85.333333 85.333333 0 1 1 0-170.666667 85.333333 85.333333 0 0 1 0 170.666667z" fill="#FFF3E0" /></svg>